<svg width="9.25in" height="8.125in" viewBox="0 0 9.25 8.125" xmlns="http://www.w3.org/2000/svg" version="1.1" preserveAspectRatio="xMidYMid meet"><g id="svgGroup" stroke-linecap="round" fill-rule="evenodd" font-size="9pt" stroke="#000" stroke-width="0.25mm" fill="none" style="stroke:#000;stroke-width:0.25mm;fill:none"><path d="M 0 4.125 L 0 4.665 L 0.118 4.665 L 0.118 4.989 L 0 4.989 L 0 5.314 L 0.118 5.314 L 0.118 5.638 L 0 5.638 L 0 5.963 L 0.118 5.963 L 0.118 6.287 L 0 6.287 L 0 6.612 L 0.118 6.612 L 0.118 6.936 L 0 6.936 L 0 7.261 L 0.118 7.261 L 0.118 7.585 L 0 7.585 L 0 7.91 L 0 8.125 L 0.54 8.125 L 0.54 8.007 L 0.864 8.007 L 0.864 8.125 L 1.189 8.125 L 1.189 8.007 L 1.513 8.007 L 1.513 8.125 L 1.838 8.125 L 1.838 8.007 L 2.162 8.007 L 2.162 8.125 L 2.487 8.125 L 2.487 8.007 L 2.811 8.007 L 2.811 8.125 L 3.136 8.125 L 3.136 8.007 L 3.46 8.007 L 3.46 8.125 L 3.785 8.125 L 4 8.125 L 4 7.585 L 3.882 7.585 L 3.882 7.261 L 4 7.261 L 4 6.936 L 3.882 6.936 L 3.882 6.612 L 4 6.612 L 4 6.287 L 3.882 6.287 L 3.882 5.963 L 4 5.963 L 4 5.638 L 3.882 5.638 L 3.882 5.314 L 4 5.314 L 4 4.989 L 3.882 4.989 L 3.882 4.665 L 4 4.665 L 4 4.34 L 4 4.125 L 3.46 4.125 L 3.46 4.243 L 3.136 4.243 L 3.136 4.125 L 2.811 4.125 L 2.811 4.243 L 2.487 4.243 L 2.487 4.125 L 2.162 4.125 L 2.162 4.243 L 1.838 4.243 L 1.838 4.125 L 1.513 4.125 L 1.513 4.243 L 1.189 4.243 L 1.189 4.125 L 0.864 4.125 L 0.864 4.243 L 0.54 4.243 L 0.54 4.125 L 0.215 4.125 L 0 4.125 Z" id="front_outsideCutPath" stroke="#FF0000" stroke-width="0.1" style="stroke:#FF0000;stroke-width:0.1" vector-effect="non-scaling-stroke"/><path d="M 2.583 6.427 L 2.518 6.427 L 2.518 6.15 A 0.183 0.183 0 0 0 2.516 6.121 Q 2.514 6.106 2.508 6.094 A 0.077 0.077 0 0 0 2.494 6.072 Q 2.475 6.051 2.438 6.047 A 0.172 0.172 0 0 0 2.42 6.046 Q 2.375 6.046 2.347 6.062 A 0.091 0.091 0 0 0 2.321 6.083 Q 2.293 6.116 2.29 6.188 A 0.416 0.416 0 0 0 2.29 6.203 L 2.29 6.427 L 2.225 6.427 L 2.225 5.999 L 2.278 5.999 L 2.288 6.058 L 2.292 6.058 A 0.131 0.131 0 0 1 2.343 6.011 A 0.158 0.158 0 0 1 2.347 6.009 A 0.176 0.176 0 0 1 2.41 5.992 A 0.212 0.212 0 0 1 2.428 5.991 Q 2.505 5.991 2.544 6.029 A 0.112 0.112 0 0 1 2.571 6.071 Q 2.578 6.089 2.581 6.111 A 0.283 0.283 0 0 1 2.583 6.148 L 2.583 6.427 Z M 1.337 5.999 L 1.337 6.049 L 1.228 6.049 L 1.228 6.427 L 1.163 6.427 L 1.163 6.049 L 1.087 6.049 L 1.087 6.02 L 1.163 5.997 L 1.163 5.973 Q 1.163 5.815 1.301 5.815 A 0.209 0.209 0 0 1 1.331 5.817 Q 1.345 5.819 1.361 5.823 A 0.42 0.42 0 0 1 1.381 5.829 L 1.364 5.881 A 0.315 0.315 0 0 0 1.34 5.874 Q 1.327 5.871 1.317 5.87 A 0.139 0.139 0 0 0 1.3 5.869 A 0.087 0.087 0 0 0 1.279 5.871 A 0.056 0.056 0 0 0 1.246 5.893 A 0.075 0.075 0 0 0 1.236 5.913 Q 1.229 5.932 1.228 5.962 A 0.306 0.306 0 0 0 1.228 5.971 L 1.228 5.999 L 1.337 5.999 Z M 2.913 6.374 L 2.913 6.423 A 0.064 0.064 0 0 1 2.906 6.426 Q 2.897 6.429 2.886 6.431 A 0.243 0.243 0 0 1 2.882 6.432 A 0.281 0.281 0 0 1 2.864 6.434 Q 2.854 6.435 2.845 6.435 A 0.169 0.169 0 0 1 2.795 6.428 Q 2.74 6.411 2.726 6.352 A 0.204 0.204 0 0 1 2.721 6.304 L 2.721 6.049 L 2.66 6.049 L 2.66 6.018 L 2.721 5.991 L 2.748 5.9 L 2.786 5.9 L 2.786 5.999 L 2.91 5.999 L 2.91 6.049 L 2.786 6.049 L 2.786 6.301 A 0.131 0.131 0 0 0 2.788 6.324 Q 2.792 6.347 2.804 6.361 A 0.06 0.06 0 0 0 2.841 6.38 A 0.087 0.087 0 0 0 2.854 6.381 A 0.213 0.213 0 0 0 2.886 6.379 A 0.195 0.195 0 0 0 2.888 6.379 Q 2.898 6.377 2.905 6.376 A 0.136 0.136 0 0 0 2.912 6.374 Z M 1.662 5.996 L 1.653 6.056 Q 1.626 6.05 1.606 6.05 A 0.112 0.112 0 0 0 1.523 6.086 A 0.154 0.154 0 0 0 1.517 6.092 A 0.148 0.148 0 0 0 1.481 6.176 A 0.197 0.197 0 0 0 1.48 6.197 L 1.48 6.427 L 1.415 6.427 L 1.415 5.999 L 1.469 5.999 L 1.476 6.078 L 1.479 6.078 Q 1.503 6.037 1.537 6.014 A 0.129 0.129 0 0 1 1.611 5.991 A 0.298 0.298 0 0 1 1.637 5.992 A 0.217 0.217 0 0 1 1.662 5.996 Z M 2.106 6.278 A 0.335 0.335 0 0 0 2.112 6.213 Q 2.112 6.171 2.103 6.136 A 0.202 0.202 0 0 0 2.059 6.051 A 0.17 0.17 0 0 0 1.98 6 A 0.218 0.218 0 0 0 1.916 5.991 A 0.252 0.252 0 0 0 1.871 5.995 A 0.172 0.172 0 0 0 1.771 6.05 A 0.179 0.179 0 0 0 1.749 6.08 Q 1.718 6.133 1.718 6.213 A 0.324 0.324 0 0 0 1.722 6.265 A 0.24 0.24 0 0 0 1.742 6.331 A 0.213 0.213 0 0 0 1.747 6.34 A 0.176 0.176 0 0 0 1.811 6.408 A 0.181 0.181 0 0 0 1.853 6.426 A 0.208 0.208 0 0 0 1.913 6.435 A 0.252 0.252 0 0 0 1.957 6.431 A 0.173 0.173 0 0 0 2.059 6.376 A 0.181 0.181 0 0 0 2.08 6.347 Q 2.098 6.317 2.106 6.278 Z M 1.785 6.213 A 0.328 0.328 0 0 0 1.788 6.26 Q 1.792 6.283 1.799 6.303 A 0.136 0.136 0 0 0 1.818 6.338 A 0.106 0.106 0 0 0 1.887 6.378 A 0.161 0.161 0 0 0 1.915 6.381 A 0.151 0.151 0 0 0 1.954 6.376 A 0.105 0.105 0 0 0 2.011 6.338 A 0.139 0.139 0 0 0 2.033 6.296 Q 2.039 6.276 2.042 6.252 A 0.342 0.342 0 0 0 2.044 6.213 A 0.324 0.324 0 0 0 2.041 6.167 Q 2.034 6.118 2.011 6.089 A 0.107 0.107 0 0 0 1.945 6.049 A 0.164 0.164 0 0 0 1.914 6.046 A 0.154 0.154 0 0 0 1.875 6.051 A 0.103 0.103 0 0 0 1.818 6.088 Q 1.785 6.13 1.785 6.213 Z" id="front_labelLayer" stroke="#777777" fill="#777777" style="stroke:#777777;fill:#777777" vector-effect="non-scaling-stroke"/><path d="M 4.243 4.125 L 4.243 4.665 L 4.125 4.665 L 4.125 4.989 L 4.243 4.989 L 4.243 5.314 L 4.125 5.314 L 4.125 5.638 L 4.243 5.638 L 4.243 5.963 L 4.125 5.963 L 4.125 6.287 L 4.243 6.287 L 4.243 6.612 L 4.125 6.612 L 4.125 6.936 L 4.243 6.936 L 4.243 7.261 L 4.125 7.261 L 4.125 7.585 L 4.243 7.585 L 4.243 7.91 L 4.243 8.125 L 4.463 8.125 L 4.463 8.007 L 4.787 8.007 L 4.787 8.125 L 5.007 8.125 L 5.007 7.585 L 5.125 7.585 L 5.125 7.261 L 5.007 7.261 L 5.007 6.936 L 5.125 6.936 L 5.125 6.612 L 5.007 6.612 L 5.007 6.287 L 5.125 6.287 L 5.125 5.963 L 5.007 5.963 L 5.007 5.638 L 5.125 5.638 L 5.125 5.314 L 5.007 5.314 L 5.007 4.989 L 5.125 4.989 L 5.125 4.665 L 5.007 4.665 L 5.007 4.34 L 5.007 4.125 L 4.787 4.125 L 4.787 4.243 L 4.463 4.243 L 4.463 4.125 L 4.243 4.125 Z" id="left_outsideCutPath" stroke="#FF0000" stroke-width="0.1" style="stroke:#FF0000;stroke-width:0.1" vector-effect="non-scaling-stroke"/><path d="M 4.696 6.094 L 4.696 6.106 L 4.669 6.106 L 4.669 6.201 L 4.653 6.201 L 4.653 6.106 L 4.634 6.106 L 4.634 6.099 L 4.653 6.093 L 4.653 6.087 A 0.066 0.066 0 0 1 4.654 6.072 Q 4.659 6.052 4.678 6.048 A 0.049 0.049 0 0 1 4.687 6.048 A 0.052 0.052 0 0 1 4.695 6.048 Q 4.7 6.049 4.707 6.051 L 4.703 6.064 A 0.079 0.079 0 0 0 4.697 6.062 Q 4.694 6.061 4.691 6.061 A 0.035 0.035 0 0 0 4.687 6.061 A 0.022 0.022 0 0 0 4.682 6.061 A 0.014 0.014 0 0 0 4.673 6.067 Q 4.669 6.073 4.669 6.084 A 0.076 0.076 0 0 0 4.669 6.087 L 4.669 6.094 L 4.696 6.094 Z M 4.62 6.14 L 4.62 6.15 L 4.547 6.15 A 0.065 0.065 0 0 0 4.548 6.161 Q 4.55 6.172 4.556 6.179 Q 4.565 6.188 4.581 6.188 A 0.086 0.086 0 0 0 4.614 6.182 A 0.097 0.097 0 0 0 4.616 6.181 L 4.616 6.196 A 0.097 0.097 0 0 1 4.607 6.199 A 0.074 0.074 0 0 1 4.599 6.201 A 0.068 0.068 0 0 1 4.593 6.202 Q 4.589 6.202 4.586 6.202 A 0.132 0.132 0 0 1 4.581 6.202 A 0.063 0.063 0 0 1 4.565 6.201 A 0.045 0.045 0 0 1 4.543 6.188 Q 4.531 6.174 4.53 6.151 A 0.093 0.093 0 0 1 4.53 6.148 A 0.085 0.085 0 0 1 4.531 6.131 Q 4.534 6.117 4.542 6.107 A 0.042 0.042 0 0 1 4.573 6.092 A 0.057 0.057 0 0 1 4.577 6.092 A 0.049 0.049 0 0 1 4.591 6.093 A 0.038 0.038 0 0 1 4.609 6.105 A 0.045 0.045 0 0 1 4.619 6.125 A 0.066 0.066 0 0 1 4.62 6.14 Z M 4.765 6.187 L 4.765 6.2 A 0.046 0.046 0 0 1 4.758 6.201 A 0.07 0.07 0 0 1 4.753 6.202 A 0.05 0.05 0 0 1 4.748 6.202 A 0.042 0.042 0 0 1 4.735 6.201 Q 4.722 6.197 4.718 6.182 A 0.051 0.051 0 0 1 4.717 6.17 L 4.717 6.106 L 4.702 6.106 L 4.702 6.098 L 4.717 6.092 L 4.724 6.069 L 4.733 6.069 L 4.733 6.094 L 4.764 6.094 L 4.764 6.106 L 4.733 6.106 L 4.733 6.169 A 0.033 0.033 0 0 0 4.734 6.175 Q 4.734 6.178 4.735 6.18 A 0.016 0.016 0 0 0 4.738 6.184 A 0.015 0.015 0 0 0 4.747 6.189 A 0.022 0.022 0 0 0 4.75 6.189 A 0.053 0.053 0 0 0 4.758 6.189 A 0.088 0.088 0 0 0 4.761 6.188 A 0.034 0.034 0 0 0 4.765 6.187 Z M 4.501 6.049 L 4.501 6.201 L 4.485 6.201 L 4.485 6.049 L 4.501 6.049 Z M 4.547 6.137 L 4.603 6.137 A 0.055 0.055 0 0 0 4.602 6.128 Q 4.601 6.123 4.6 6.119 A 0.025 0.025 0 0 0 4.596 6.113 A 0.022 0.022 0 0 0 4.583 6.106 A 0.033 0.033 0 0 0 4.577 6.105 A 0.032 0.032 0 0 0 4.567 6.106 A 0.025 0.025 0 0 0 4.556 6.114 Q 4.549 6.121 4.547 6.134 A 0.061 0.061 0 0 0 4.547 6.137 Z M 4.765 6.2 Q 4.763 6.2 4.761 6.201 M 4.761 6.188 Q 4.762 6.188 4.763 6.188" id="left_labelLayer" stroke="#777777" fill="#777777" style="stroke:#777777;fill:#777777" vector-effect="non-scaling-stroke"/><path d="M 5.368 7.243 L 5.368 7.463 L 5.25 7.463 L 5.25 7.787 L 5.368 7.787 L 5.368 8.007 L 5.79 8.007 L 5.79 8.125 L 6.114 8.125 L 6.114 8.007 L 6.439 8.007 L 6.439 8.125 L 6.763 8.125 L 6.763 8.007 L 7.088 8.007 L 7.088 8.125 L 7.412 8.125 L 7.412 8.007 L 7.737 8.007 L 7.737 8.125 L 8.061 8.125 L 8.061 8.007 L 8.386 8.007 L 8.386 8.125 L 8.71 8.125 L 8.71 8.007 L 9.035 8.007 L 9.132 8.007 L 9.132 7.787 L 9.25 7.787 L 9.25 7.463 L 9.132 7.463 L 9.132 7.243 L 8.71 7.243 L 8.71 7.125 L 8.386 7.125 L 8.386 7.243 L 8.061 7.243 L 8.061 7.125 L 7.737 7.125 L 7.737 7.243 L 7.412 7.243 L 7.412 7.125 L 7.088 7.125 L 7.088 7.243 L 6.763 7.243 L 6.763 7.125 L 6.439 7.125 L 6.439 7.243 L 6.114 7.243 L 6.114 7.125 L 5.79 7.125 L 5.79 7.243 L 5.465 7.243 L 5.368 7.243 Z" id="top_outsideCutPath" stroke="#FF0000" stroke-width="0.1" style="stroke:#FF0000;stroke-width:0.1" vector-effect="non-scaling-stroke"/><path d="M 7.322 7.653 L 7.321 7.653 A 0.153 0.153 0 0 1 7.322 7.664 A 0.129 0.129 0 0 1 7.322 7.671 L 7.322 7.715 L 7.306 7.715 L 7.306 7.56 L 7.319 7.56 L 7.321 7.575 A 0.044 0.044 0 0 1 7.328 7.567 A 0.034 0.034 0 0 1 7.336 7.562 A 0.041 0.041 0 0 1 7.348 7.558 A 0.053 0.053 0 0 1 7.355 7.558 A 0.05 0.05 0 0 1 7.37 7.56 A 0.037 0.037 0 0 1 7.388 7.572 Q 7.398 7.584 7.4 7.604 A 0.106 0.106 0 0 1 7.4 7.613 A 0.095 0.095 0 0 1 7.399 7.629 Q 7.396 7.644 7.388 7.654 A 0.038 0.038 0 0 1 7.361 7.669 A 0.055 0.055 0 0 1 7.355 7.669 A 0.049 0.049 0 0 1 7.343 7.667 A 0.043 0.043 0 0 1 7.336 7.665 A 0.036 0.036 0 0 1 7.322 7.653 Z M 7.163 7.654 L 7.163 7.666 A 0.046 0.046 0 0 1 7.157 7.668 A 0.07 0.07 0 0 1 7.151 7.669 A 0.05 0.05 0 0 1 7.147 7.669 A 0.042 0.042 0 0 1 7.134 7.667 Q 7.12 7.663 7.117 7.648 A 0.051 0.051 0 0 1 7.115 7.636 L 7.115 7.572 L 7.1 7.572 L 7.1 7.565 L 7.115 7.558 L 7.122 7.535 L 7.132 7.535 L 7.132 7.56 L 7.163 7.56 L 7.163 7.572 L 7.132 7.572 L 7.132 7.635 A 0.033 0.033 0 0 0 7.132 7.641 Q 7.133 7.644 7.134 7.647 A 0.016 0.016 0 0 0 7.136 7.65 A 0.015 0.015 0 0 0 7.145 7.655 A 0.022 0.022 0 0 0 7.149 7.655 A 0.053 0.053 0 0 0 7.157 7.655 A 0.088 0.088 0 0 0 7.159 7.654 A 0.034 0.034 0 0 0 7.163 7.654 Z M 7.276 7.63 A 0.084 0.084 0 0 0 7.277 7.613 A 0.095 0.095 0 0 0 7.277 7.611 Q 7.277 7.587 7.264 7.573 A 0.042 0.042 0 0 0 7.244 7.56 A 0.054 0.054 0 0 0 7.228 7.558 A 0.063 0.063 0 0 0 7.217 7.559 A 0.043 0.043 0 0 0 7.192 7.573 Q 7.179 7.587 7.179 7.613 A 0.081 0.081 0 0 0 7.18 7.626 A 0.06 0.06 0 0 0 7.185 7.643 A 0.053 0.053 0 0 0 7.186 7.645 A 0.044 0.044 0 0 0 7.202 7.662 A 0.045 0.045 0 0 0 7.213 7.667 A 0.052 0.052 0 0 0 7.228 7.669 A 0.063 0.063 0 0 0 7.239 7.668 A 0.043 0.043 0 0 0 7.264 7.654 Q 7.273 7.644 7.276 7.63 Z M 7.196 7.613 A 0.082 0.082 0 0 0 7.196 7.625 Q 7.197 7.631 7.199 7.636 A 0.034 0.034 0 0 0 7.204 7.645 A 0.027 0.027 0 0 0 7.221 7.655 A 0.04 0.04 0 0 0 7.228 7.655 Q 7.244 7.655 7.252 7.645 A 0.035 0.035 0 0 0 7.258 7.634 Q 7.259 7.629 7.26 7.623 A 0.085 0.085 0 0 0 7.26 7.613 A 0.081 0.081 0 0 0 7.26 7.602 Q 7.258 7.59 7.252 7.582 A 0.027 0.027 0 0 0 7.236 7.572 A 0.041 0.041 0 0 0 7.228 7.572 A 0.039 0.039 0 0 0 7.218 7.573 A 0.026 0.026 0 0 0 7.204 7.582 A 0.034 0.034 0 0 0 7.199 7.592 Q 7.197 7.597 7.196 7.602 A 0.086 0.086 0 0 0 7.196 7.613 Z M 7.322 7.61 L 7.322 7.613 Q 7.322 7.636 7.329 7.646 A 0.024 0.024 0 0 0 7.341 7.654 Q 7.345 7.655 7.35 7.655 A 0.052 0.052 0 0 0 7.354 7.655 A 0.027 0.027 0 0 0 7.364 7.653 Q 7.37 7.651 7.375 7.645 A 0.032 0.032 0 0 0 7.375 7.644 A 0.039 0.039 0 0 0 7.381 7.633 Q 7.383 7.624 7.383 7.613 A 0.082 0.082 0 0 0 7.382 7.601 Q 7.381 7.596 7.38 7.591 A 0.034 0.034 0 0 0 7.375 7.582 A 0.025 0.025 0 0 0 7.357 7.572 A 0.035 0.035 0 0 0 7.353 7.572 A 0.047 0.047 0 0 0 7.344 7.572 Q 7.335 7.574 7.329 7.581 A 0.028 0.028 0 0 0 7.325 7.589 Q 7.322 7.597 7.322 7.61 Z M 7.163 7.666 Q 7.162 7.667 7.159 7.667 M 7.159 7.654 Q 7.161 7.654 7.162 7.654" id="top_labelLayer" stroke="#777777" fill="#777777" style="stroke:#777777;fill:#777777" vector-effect="non-scaling-stroke"/><path d="M 0 0 L 0 0.54 L 0.118 0.54 L 0.118 0.864 L 0 0.864 L 0 1.189 L 0.118 1.189 L 0.118 1.513 L 0 1.513 L 0 1.838 L 0.118 1.838 L 0.118 2.162 L 0 2.162 L 0 2.487 L 0.118 2.487 L 0.118 2.811 L 0 2.811 L 0 3.136 L 0.118 3.136 L 0.118 3.46 L 0 3.46 L 0 3.785 L 0 4 L 0.54 4 L 0.54 3.882 L 0.864 3.882 L 0.864 4 L 1.189 4 L 1.189 3.882 L 1.513 3.882 L 1.513 4 L 1.838 4 L 1.838 3.882 L 2.162 3.882 L 2.162 4 L 2.487 4 L 2.487 3.882 L 2.811 3.882 L 2.811 4 L 3.136 4 L 3.136 3.882 L 3.46 3.882 L 3.46 4 L 3.785 4 L 4 4 L 4 3.46 L 3.882 3.46 L 3.882 3.136 L 4 3.136 L 4 2.811 L 3.882 2.811 L 3.882 2.487 L 4 2.487 L 4 2.162 L 3.882 2.162 L 3.882 1.838 L 4 1.838 L 4 1.513 L 3.882 1.513 L 3.882 1.189 L 4 1.189 L 4 0.864 L 3.882 0.864 L 3.882 0.54 L 4 0.54 L 4 0.215 L 4 0 L 3.46 0 L 3.46 0.118 L 3.136 0.118 L 3.136 0 L 2.811 0 L 2.811 0.118 L 2.487 0.118 L 2.487 0 L 2.162 0 L 2.162 0.118 L 1.838 0.118 L 1.838 0 L 1.513 0 L 1.513 0.118 L 1.189 0.118 L 1.189 0 L 0.864 0 L 0.864 0.118 L 0.54 0.118 L 0.54 0 L 0.215 0 L 0 0 Z" id="back_outsideCutPath" stroke="#FF0000" stroke-width="0.1" style="stroke:#FF0000;stroke-width:0.1" vector-effect="non-scaling-stroke"/><path d="M 2.548 2.081 L 2.551 2.081 A 0.384 0.384 0 0 1 2.56 2.068 Q 2.576 2.047 2.602 2.018 L 2.74 1.872 L 2.817 1.872 L 2.644 2.054 L 2.829 2.3 L 2.751 2.3 L 2.6 2.098 L 2.551 2.14 L 2.551 2.3 L 2.487 2.3 L 2.487 1.692 L 2.551 1.692 L 2.551 2.014 A 0.432 0.432 0 0 1 2.551 2.027 Q 2.55 2.047 2.548 2.081 Z M 1.236 2.245 L 1.231 2.245 L 1.217 2.3 L 1.171 2.3 L 1.171 1.692 L 1.236 1.692 L 1.236 1.84 A 1.352 1.352 0 0 1 1.235 1.886 Q 1.234 1.907 1.233 1.926 A 0.815 0.815 0 0 1 1.232 1.929 L 1.236 1.929 A 0.147 0.147 0 0 1 1.343 1.866 A 0.221 0.221 0 0 1 1.37 1.865 A 0.198 0.198 0 0 1 1.426 1.872 A 0.148 0.148 0 0 1 1.501 1.922 A 0.191 0.191 0 0 1 1.534 1.987 Q 1.543 2.014 1.546 2.045 A 0.416 0.416 0 0 1 1.548 2.086 A 0.38 0.38 0 0 1 1.543 2.15 Q 1.537 2.184 1.524 2.211 A 0.182 0.182 0 0 1 1.501 2.249 A 0.154 0.154 0 0 1 1.391 2.307 A 0.22 0.22 0 0 1 1.37 2.308 A 0.197 0.197 0 0 1 1.32 2.302 A 0.171 0.171 0 0 1 1.294 2.292 A 0.144 0.144 0 0 1 1.236 2.245 Z M 1.972 2.3 L 1.924 2.3 L 1.911 2.239 L 1.908 2.239 Q 1.876 2.279 1.844 2.294 Q 1.818 2.305 1.781 2.307 A 0.292 0.292 0 0 1 1.765 2.308 A 0.199 0.199 0 0 1 1.724 2.304 Q 1.7 2.299 1.681 2.287 A 0.112 0.112 0 0 1 1.665 2.275 Q 1.629 2.242 1.629 2.182 Q 1.629 2.056 1.823 2.046 A 0.633 0.633 0 0 1 1.836 2.046 L 1.909 2.043 L 1.909 2.017 A 0.186 0.186 0 0 0 1.907 1.99 Q 1.905 1.976 1.901 1.965 A 0.072 0.072 0 0 0 1.887 1.942 A 0.066 0.066 0 0 0 1.86 1.925 Q 1.85 1.921 1.836 1.919 A 0.16 0.16 0 0 0 1.818 1.918 Q 1.775 1.918 1.723 1.94 A 0.434 0.434 0 0 0 1.697 1.951 L 1.677 1.902 Q 1.709 1.884 1.746 1.875 Q 1.784 1.865 1.822 1.865 A 0.274 0.274 0 0 1 1.864 1.868 Q 1.885 1.871 1.902 1.878 A 0.11 0.11 0 0 1 1.935 1.899 Q 1.972 1.933 1.972 2.008 L 1.972 2.3 Z M 2.391 1.886 L 2.371 1.941 A 0.288 0.288 0 0 0 2.34 1.931 A 0.345 0.345 0 0 0 2.325 1.927 Q 2.303 1.922 2.285 1.922 A 0.144 0.144 0 0 0 2.28 1.921 A 0.144 0.144 0 0 0 2.221 1.932 Q 2.149 1.964 2.149 2.088 Q 2.149 2.14 2.163 2.176 A 0.134 0.134 0 0 0 2.181 2.209 Q 2.213 2.251 2.275 2.251 A 0.271 0.271 0 0 0 2.35 2.24 A 0.335 0.335 0 0 0 2.385 2.228 L 2.385 2.286 A 0.184 0.184 0 0 1 2.34 2.302 Q 2.312 2.308 2.277 2.308 A 0.242 0.242 0 0 1 2.218 2.301 A 0.164 0.164 0 0 1 2.133 2.251 A 0.188 0.188 0 0 1 2.094 2.179 Q 2.085 2.151 2.083 2.116 A 0.392 0.392 0 0 1 2.082 2.089 Q 2.082 2.011 2.109 1.959 A 0.179 0.179 0 0 1 2.134 1.923 A 0.168 0.168 0 0 1 2.226 1.87 A 0.255 0.255 0 0 1 2.281 1.864 A 0.293 0.293 0 0 1 2.343 1.871 A 0.324 0.324 0 0 1 2.361 1.875 Q 2.37 1.878 2.377 1.88 A 0.128 0.128 0 0 1 2.391 1.886 Z M 1.29 1.935 A 0.086 0.086 0 0 0 1.265 1.957 Q 1.239 1.991 1.236 2.064 A 0.5 0.5 0 0 0 1.236 2.086 Q 1.236 2.176 1.266 2.215 Q 1.293 2.249 1.349 2.253 A 0.209 0.209 0 0 0 1.362 2.254 A 0.129 0.129 0 0 0 1.399 2.249 A 0.093 0.093 0 0 0 1.451 2.21 A 0.149 0.149 0 0 0 1.47 2.17 Q 1.475 2.151 1.478 2.128 A 0.372 0.372 0 0 0 1.48 2.085 Q 1.48 2.006 1.454 1.965 A 0.107 0.107 0 0 0 1.451 1.96 Q 1.422 1.919 1.361 1.919 Q 1.317 1.919 1.29 1.935 Z M 1.907 2.128 L 1.907 2.089 L 1.843 2.092 Q 1.778 2.094 1.744 2.11 A 0.1 0.1 0 0 0 1.731 2.116 A 0.069 0.069 0 0 0 1.698 2.166 A 0.102 0.102 0 0 0 1.697 2.182 A 0.093 0.093 0 0 0 1.699 2.204 Q 1.704 2.224 1.718 2.236 Q 1.739 2.254 1.778 2.254 Q 1.83 2.254 1.863 2.229 A 0.108 0.108 0 0 0 1.873 2.221 A 0.109 0.109 0 0 0 1.903 2.167 A 0.165 0.165 0 0 0 1.907 2.129 Z" id="back_labelLayer" stroke="#777777" fill="#777777" style="stroke:#777777;fill:#777777" vector-effect="non-scaling-stroke"/><path d="M 4.243 0 L 4.243 0.54 L 4.125 0.54 L 4.125 0.864 L 4.243 0.864 L 4.243 1.189 L 4.125 1.189 L 4.125 1.513 L 4.243 1.513 L 4.243 1.838 L 4.125 1.838 L 4.125 2.162 L 4.243 2.162 L 4.243 2.487 L 4.125 2.487 L 4.125 2.811 L 4.243 2.811 L 4.243 3.136 L 4.125 3.136 L 4.125 3.46 L 4.243 3.46 L 4.243 3.785 L 4.243 4 L 4.463 4 L 4.463 3.882 L 4.787 3.882 L 4.787 4 L 5.007 4 L 5.007 3.46 L 5.125 3.46 L 5.125 3.136 L 5.007 3.136 L 5.007 2.811 L 5.125 2.811 L 5.125 2.487 L 5.007 2.487 L 5.007 2.162 L 5.125 2.162 L 5.125 1.838 L 5.007 1.838 L 5.007 1.513 L 5.125 1.513 L 5.125 1.189 L 5.007 1.189 L 5.007 0.864 L 5.125 0.864 L 5.125 0.54 L 5.007 0.54 L 5.007 0.215 L 5.007 0 L 4.787 0 L 4.787 0.118 L 4.463 0.118 L 4.463 0 L 4.243 0 Z" id="right_outsideCutPath" stroke="#FF0000" stroke-width="0.1" style="stroke:#FF0000;stroke-width:0.1" vector-effect="non-scaling-stroke"/><path d="M 4.749 2.052 L 4.733 2.052 L 4.733 1.983 Q 4.733 1.974 4.731 1.969 A 0.019 0.019 0 0 0 4.727 1.963 A 0.018 0.018 0 0 0 4.72 1.958 Q 4.717 1.957 4.713 1.957 A 0.043 0.043 0 0 0 4.709 1.957 Q 4.698 1.957 4.69 1.961 A 0.023 0.023 0 0 0 4.684 1.966 A 0.027 0.027 0 0 0 4.679 1.974 Q 4.676 1.983 4.676 1.996 L 4.676 2.052 L 4.66 2.052 L 4.66 1.9 L 4.676 1.9 L 4.676 1.946 A 0.146 0.146 0 0 1 4.676 1.952 Q 4.676 1.956 4.675 1.96 Q 4.681 1.952 4.69 1.948 A 0.042 0.042 0 0 1 4.704 1.944 A 0.053 0.053 0 0 1 4.71 1.943 Q 4.723 1.943 4.732 1.947 A 0.029 0.029 0 0 1 4.74 1.952 A 0.028 0.028 0 0 1 4.747 1.963 Q 4.749 1.971 4.749 1.982 L 4.749 2.052 Z M 4.557 2.015 A 0.023 0.023 0 0 0 4.554 2.018 A 0.016 0.016 0 0 0 4.552 2.023 A 0.019 0.019 0 0 0 4.551 2.029 A 0.015 0.015 0 0 0 4.554 2.038 A 0.017 0.017 0 0 0 4.561 2.044 A 0.04 0.04 0 0 0 4.553 2.046 A 0.028 0.028 0 0 0 4.543 2.053 A 0.025 0.025 0 0 0 4.537 2.07 A 0.034 0.034 0 0 0 4.537 2.072 Q 4.537 2.078 4.54 2.083 A 0.026 0.026 0 0 0 4.548 2.092 Q 4.556 2.098 4.569 2.099 A 0.091 0.091 0 0 0 4.581 2.1 A 0.128 0.128 0 0 0 4.596 2.099 Q 4.604 2.098 4.61 2.096 A 0.049 0.049 0 0 0 4.622 2.091 Q 4.637 2.081 4.637 2.064 A 0.036 0.036 0 0 0 4.636 2.057 A 0.024 0.024 0 0 0 4.627 2.042 Q 4.621 2.037 4.611 2.036 A 0.066 0.066 0 0 0 4.601 2.035 L 4.582 2.035 A 0.061 0.061 0 0 1 4.578 2.035 Q 4.572 2.035 4.569 2.033 Q 4.566 2.031 4.566 2.026 Q 4.566 2.02 4.571 2.016 A 0.029 0.029 0 0 1 4.576 2.013 A 0.044 0.044 0 0 0 4.579 2.013 A 0.052 0.052 0 0 0 4.585 2.013 A 0.07 0.07 0 0 0 4.589 2.013 Q 4.595 2.013 4.6 2.011 A 0.036 0.036 0 0 0 4.614 2.004 A 0.03 0.03 0 0 0 4.623 1.99 A 0.037 0.037 0 0 0 4.625 1.979 A 0.04 0.04 0 0 0 4.625 1.974 A 0.031 0.031 0 0 0 4.623 1.966 A 0.05 0.05 0 0 0 4.622 1.965 Q 4.62 1.96 4.618 1.958 L 4.638 1.955 L 4.638 1.945 L 4.601 1.945 A 0.047 0.047 0 0 0 4.594 1.943 A 0.062 0.062 0 0 0 4.586 1.943 A 0.072 0.072 0 0 0 4.581 1.943 Q 4.565 1.944 4.556 1.952 A 0.031 0.031 0 0 0 4.547 1.969 A 0.047 0.047 0 0 0 4.545 1.98 A 0.041 0.041 0 0 0 4.545 1.982 A 0.034 0.034 0 0 0 4.551 1.998 A 0.035 0.035 0 0 0 4.552 2 A 0.028 0.028 0 0 0 4.564 2.01 A 0.051 0.051 0 0 0 4.561 2.012 Z M 4.832 2.039 L 4.832 2.051 A 0.046 0.046 0 0 1 4.825 2.053 A 0.07 0.07 0 0 1 4.82 2.054 A 0.05 0.05 0 0 1 4.815 2.054 A 0.042 0.042 0 0 1 4.802 2.052 Q 4.789 2.048 4.785 2.033 A 0.051 0.051 0 0 1 4.784 2.021 L 4.784 1.958 L 4.769 1.958 L 4.769 1.95 L 4.784 1.943 L 4.791 1.92 L 4.8 1.92 L 4.8 1.945 L 4.831 1.945 L 4.831 1.958 L 4.8 1.958 L 4.8 2.021 A 0.033 0.033 0 0 0 4.801 2.026 Q 4.801 2.029 4.802 2.032 A 0.016 0.016 0 0 0 4.805 2.035 A 0.015 0.015 0 0 0 4.814 2.04 A 0.022 0.022 0 0 0 4.817 2.041 A 0.053 0.053 0 0 0 4.825 2.04 A 0.088 0.088 0 0 0 4.828 2.039 A 0.034 0.034 0 0 0 4.832 2.039 Z M 4.48 1.944 L 4.477 1.959 Q 4.472 1.958 4.468 1.958 A 0.038 0.038 0 0 0 4.466 1.958 A 0.028 0.028 0 0 0 4.445 1.967 A 0.038 0.038 0 0 0 4.444 1.968 A 0.037 0.037 0 0 0 4.435 1.989 A 0.049 0.049 0 0 0 4.434 1.995 L 4.434 2.052 L 4.418 2.052 L 4.418 1.945 L 4.431 1.945 L 4.433 1.965 A 0.055 0.055 0 0 1 4.44 1.956 A 0.042 0.042 0 0 1 4.448 1.949 Q 4.457 1.943 4.467 1.943 A 0.074 0.074 0 0 1 4.474 1.943 A 0.054 0.054 0 0 1 4.48 1.944 Z M 4.516 1.945 L 4.516 2.052 L 4.5 2.052 L 4.5 1.945 L 4.516 1.945 Z M 4.595 2.05 L 4.576 2.05 Q 4.568 2.05 4.562 2.052 A 0.019 0.019 0 0 0 4.559 2.055 A 0.017 0.017 0 0 0 4.553 2.064 A 0.026 0.026 0 0 0 4.553 2.07 A 0.016 0.016 0 0 0 4.554 2.076 Q 4.555 2.08 4.56 2.083 A 0.026 0.026 0 0 0 4.566 2.086 Q 4.572 2.088 4.581 2.088 A 0.109 0.109 0 0 0 4.592 2.087 Q 4.602 2.086 4.609 2.083 A 0.027 0.027 0 0 0 4.611 2.081 A 0.024 0.024 0 0 0 4.617 2.077 A 0.018 0.018 0 0 0 4.621 2.065 Q 4.621 2.06 4.619 2.056 A 0.01 0.01 0 0 0 4.616 2.053 Q 4.611 2.05 4.602 2.05 A 0.103 0.103 0 0 0 4.595 2.05 Z M 4.565 1.993 A 0.017 0.017 0 0 0 4.568 1.996 Q 4.574 2.002 4.585 2.002 A 0.035 0.035 0 0 0 4.595 2.001 Q 4.609 1.997 4.609 1.979 A 0.035 0.035 0 0 0 4.608 1.969 Q 4.605 1.959 4.594 1.956 A 0.035 0.035 0 0 0 4.585 1.955 Q 4.576 1.955 4.571 1.958 A 0.019 0.019 0 0 0 4.568 1.961 A 0.019 0.019 0 0 0 4.563 1.969 Q 4.562 1.972 4.562 1.976 A 0.043 0.043 0 0 0 4.561 1.979 Q 4.561 1.988 4.565 1.993 Z M 4.499 1.913 A 0.018 0.018 0 0 0 4.498 1.916 A 0.019 0.019 0 0 0 4.498 1.918 A 0.008 0.008 0 0 0 4.501 1.924 A 0.009 0.009 0 0 0 4.504 1.926 A 0.01 0.01 0 0 0 4.508 1.927 Q 4.512 1.927 4.515 1.924 Q 4.517 1.922 4.517 1.919 A 0.017 0.017 0 0 0 4.518 1.916 A 0.019 0.019 0 0 0 4.517 1.914 Q 4.517 1.91 4.515 1.908 A 0.01 0.01 0 0 0 4.508 1.905 A 0.009 0.009 0 0 0 4.501 1.908 A 0.008 0.008 0 0 0 4.499 1.91 Z M 4.557 2.015 Q 4.559 2.013 4.561 2.012 M 4.832 2.051 Q 4.83 2.052 4.828 2.052 M 4.499 1.921 Q 4.499 1.919 4.498 1.918 M 4.499 1.913 Q 4.499 1.911 4.499 1.91 M 4.828 2.039 Q 4.829 2.039 4.83 2.039" id="right_labelLayer" stroke="#777777" fill="#777777" style="stroke:#777777;fill:#777777" vector-effect="non-scaling-stroke"/><path d="M 5.368 6.118 L 5.368 6.338 L 5.25 6.338 L 5.25 6.662 L 5.368 6.662 L 5.368 6.882 L 5.79 6.882 L 5.79 7 L 6.114 7 L 6.114 6.882 L 6.439 6.882 L 6.439 7 L 6.763 7 L 6.763 6.882 L 7.088 6.882 L 7.088 7 L 7.412 7 L 7.412 6.882 L 7.737 6.882 L 7.737 7 L 8.061 7 L 8.061 6.882 L 8.386 6.882 L 8.386 7 L 8.71 7 L 8.71 6.882 L 9.035 6.882 L 9.132 6.882 L 9.132 6.662 L 9.25 6.662 L 9.25 6.338 L 9.132 6.338 L 9.132 6.118 L 8.71 6.118 L 8.71 6 L 8.386 6 L 8.386 6.118 L 8.061 6.118 L 8.061 6 L 7.737 6 L 7.737 6.118 L 7.412 6.118 L 7.412 6 L 7.088 6 L 7.088 6.118 L 6.763 6.118 L 6.763 6 L 6.439 6 L 6.439 6.118 L 6.114 6.118 L 6.114 6 L 5.79 6 L 5.79 6.118 L 5.465 6.118 L 5.368 6.118 Z" id="bottom_outsideCutPath" stroke="#FF0000" stroke-width="0.1" style="stroke:#FF0000;stroke-width:0.1" vector-effect="non-scaling-stroke"/><path d="M 7.579 6.575 L 7.563 6.575 L 7.563 6.505 A 0.048 0.048 0 0 0 7.562 6.498 Q 7.561 6.491 7.557 6.486 Q 7.553 6.481 7.543 6.48 A 0.038 0.038 0 0 0 7.54 6.48 A 0.042 0.042 0 0 0 7.532 6.481 Q 7.527 6.482 7.523 6.484 A 0.021 0.021 0 0 0 7.518 6.488 A 0.027 0.027 0 0 0 7.513 6.497 Q 7.511 6.504 7.511 6.515 L 7.511 6.575 L 7.495 6.575 L 7.495 6.505 A 0.048 0.048 0 0 0 7.494 6.498 Q 7.493 6.491 7.489 6.486 Q 7.484 6.48 7.472 6.48 A 0.04 0.04 0 0 0 7.464 6.481 Q 7.455 6.482 7.45 6.489 A 0.027 0.027 0 0 0 7.446 6.497 Q 7.443 6.505 7.443 6.519 L 7.443 6.575 L 7.426 6.575 L 7.426 6.468 L 7.44 6.468 L 7.442 6.483 Q 7.448 6.475 7.456 6.47 A 0.038 0.038 0 0 1 7.471 6.466 A 0.046 0.046 0 0 1 7.475 6.466 A 0.053 0.053 0 0 1 7.487 6.467 Q 7.494 6.469 7.499 6.473 A 0.028 0.028 0 0 1 7.507 6.484 A 0.034 0.034 0 0 1 7.521 6.472 A 0.041 0.041 0 0 1 7.522 6.471 A 0.041 0.041 0 0 1 7.537 6.466 A 0.051 0.051 0 0 1 7.543 6.466 Q 7.561 6.466 7.57 6.475 Q 7.577 6.482 7.578 6.495 A 0.074 0.074 0 0 1 7.579 6.505 L 7.579 6.575 Z M 6.937 6.561 L 6.936 6.561 L 6.933 6.575 L 6.921 6.575 L 6.921 6.423 L 6.937 6.423 L 6.937 6.46 A 0.338 0.338 0 0 1 6.937 6.471 A 0.244 0.244 0 0 1 6.936 6.482 Q 6.949 6.466 6.971 6.466 A 0.05 0.05 0 0 1 6.985 6.468 A 0.037 0.037 0 0 1 7.004 6.481 Q 7.015 6.495 7.015 6.521 A 0.095 0.095 0 0 1 7.014 6.537 Q 7.011 6.553 7.003 6.562 A 0.038 0.038 0 0 1 6.976 6.577 A 0.055 0.055 0 0 1 6.971 6.577 A 0.049 0.049 0 0 1 6.958 6.575 A 0.043 0.043 0 0 1 6.952 6.573 A 0.036 0.036 0 0 1 6.937 6.561 Z M 7.214 6.562 L 7.214 6.574 A 0.046 0.046 0 0 1 7.207 6.576 A 0.07 0.07 0 0 1 7.201 6.577 A 0.05 0.05 0 0 1 7.197 6.577 A 0.042 0.042 0 0 1 7.184 6.575 Q 7.17 6.571 7.167 6.556 A 0.051 0.051 0 0 1 7.166 6.544 L 7.166 6.481 L 7.15 6.481 L 7.15 6.473 L 7.166 6.466 L 7.172 6.443 L 7.182 6.443 L 7.182 6.468 L 7.213 6.468 L 7.213 6.481 L 7.182 6.481 L 7.182 6.544 A 0.033 0.033 0 0 0 7.182 6.549 Q 7.183 6.552 7.184 6.555 A 0.016 0.016 0 0 0 7.186 6.558 A 0.015 0.015 0 0 0 7.196 6.563 A 0.022 0.022 0 0 0 7.199 6.564 A 0.053 0.053 0 0 0 7.207 6.563 A 0.088 0.088 0 0 0 7.21 6.563 A 0.034 0.034 0 0 0 7.213 6.562 Z M 7.284 6.562 L 7.284 6.574 A 0.046 0.046 0 0 1 7.277 6.576 A 0.07 0.07 0 0 1 7.272 6.577 A 0.05 0.05 0 0 1 7.268 6.577 A 0.042 0.042 0 0 1 7.255 6.575 Q 7.241 6.571 7.237 6.556 A 0.051 0.051 0 0 1 7.236 6.544 L 7.236 6.481 L 7.221 6.481 L 7.221 6.473 L 7.236 6.466 L 7.243 6.443 L 7.252 6.443 L 7.252 6.468 L 7.283 6.468 L 7.283 6.481 L 7.252 6.481 L 7.252 6.544 A 0.033 0.033 0 0 0 7.253 6.549 Q 7.253 6.552 7.255 6.555 A 0.016 0.016 0 0 0 7.257 6.558 A 0.015 0.015 0 0 0 7.266 6.563 A 0.022 0.022 0 0 0 7.27 6.564 A 0.053 0.053 0 0 0 7.277 6.563 A 0.088 0.088 0 0 0 7.28 6.563 A 0.034 0.034 0 0 0 7.284 6.562 Z M 7.134 6.538 A 0.084 0.084 0 0 0 7.136 6.521 A 0.095 0.095 0 0 0 7.136 6.519 Q 7.135 6.495 7.123 6.481 A 0.042 0.042 0 0 0 7.103 6.468 A 0.054 0.054 0 0 0 7.087 6.466 A 0.063 0.063 0 0 0 7.076 6.467 A 0.043 0.043 0 0 0 7.051 6.481 Q 7.038 6.495 7.038 6.521 A 0.081 0.081 0 0 0 7.039 6.535 A 0.06 0.06 0 0 0 7.044 6.551 A 0.053 0.053 0 0 0 7.045 6.553 A 0.044 0.044 0 0 0 7.061 6.57 A 0.045 0.045 0 0 0 7.071 6.575 A 0.052 0.052 0 0 0 7.086 6.577 A 0.063 0.063 0 0 0 7.097 6.576 A 0.043 0.043 0 0 0 7.123 6.562 Q 7.132 6.552 7.134 6.538 Z M 7.396 6.538 A 0.084 0.084 0 0 0 7.398 6.521 A 0.095 0.095 0 0 0 7.398 6.519 Q 7.397 6.495 7.385 6.481 A 0.042 0.042 0 0 0 7.365 6.468 A 0.054 0.054 0 0 0 7.349 6.466 A 0.063 0.063 0 0 0 7.338 6.467 A 0.043 0.043 0 0 0 7.313 6.481 Q 7.3 6.495 7.3 6.521 A 0.081 0.081 0 0 0 7.301 6.535 A 0.06 0.06 0 0 0 7.306 6.551 A 0.053 0.053 0 0 0 7.307 6.553 A 0.044 0.044 0 0 0 7.323 6.57 A 0.045 0.045 0 0 0 7.333 6.575 A 0.052 0.052 0 0 0 7.348 6.577 A 0.063 0.063 0 0 0 7.359 6.576 A 0.043 0.043 0 0 0 7.385 6.562 Q 7.394 6.552 7.396 6.538 Z M 7.054 6.521 A 0.082 0.082 0 0 0 7.055 6.533 Q 7.056 6.539 7.058 6.544 A 0.034 0.034 0 0 0 7.063 6.553 A 0.027 0.027 0 0 0 7.08 6.563 A 0.04 0.04 0 0 0 7.087 6.563 Q 7.103 6.563 7.111 6.553 A 0.035 0.035 0 0 0 7.116 6.542 Q 7.118 6.537 7.119 6.531 A 0.085 0.085 0 0 0 7.119 6.521 A 0.081 0.081 0 0 0 7.118 6.51 Q 7.117 6.498 7.111 6.49 A 0.027 0.027 0 0 0 7.094 6.48 A 0.041 0.041 0 0 0 7.087 6.48 A 0.039 0.039 0 0 0 7.077 6.481 A 0.026 0.026 0 0 0 7.062 6.49 A 0.034 0.034 0 0 0 7.057 6.5 Q 7.056 6.505 7.055 6.511 A 0.086 0.086 0 0 0 7.054 6.521 Z M 7.316 6.521 A 0.082 0.082 0 0 0 7.317 6.533 Q 7.318 6.539 7.32 6.544 A 0.034 0.034 0 0 0 7.325 6.553 A 0.027 0.027 0 0 0 7.342 6.563 A 0.04 0.04 0 0 0 7.349 6.563 Q 7.365 6.563 7.373 6.553 A 0.035 0.035 0 0 0 7.378 6.542 Q 7.38 6.537 7.381 6.531 A 0.085 0.085 0 0 0 7.381 6.521 A 0.081 0.081 0 0 0 7.38 6.51 Q 7.379 6.498 7.373 6.49 A 0.027 0.027 0 0 0 7.356 6.48 A 0.041 0.041 0 0 0 7.349 6.48 A 0.039 0.039 0 0 0 7.339 6.481 A 0.026 0.026 0 0 0 7.325 6.49 A 0.034 0.034 0 0 0 7.319 6.5 Q 7.318 6.505 7.317 6.511 A 0.086 0.086 0 0 0 7.316 6.521 Z M 6.968 6.48 A 0.046 0.046 0 0 0 6.96 6.481 Q 6.95 6.483 6.945 6.489 Q 6.937 6.499 6.937 6.521 Q 6.937 6.544 6.945 6.554 A 0.024 0.024 0 0 0 6.957 6.562 Q 6.961 6.563 6.966 6.563 A 0.052 0.052 0 0 0 6.969 6.563 A 0.032 0.032 0 0 0 6.978 6.562 A 0.023 0.023 0 0 0 6.991 6.552 Q 6.998 6.542 6.998 6.521 A 0.096 0.096 0 0 0 6.998 6.51 Q 6.996 6.497 6.991 6.49 Q 6.984 6.48 6.968 6.48 Z M 7.214 6.574 Q 7.212 6.575 7.209 6.575 M 7.284 6.574 Q 7.283 6.575 7.28 6.575 M 7.21 6.563 Q 7.211 6.562 7.212 6.562 M 7.28 6.563 Q 7.281 6.562 7.282 6.562" id="bottom_labelLayer" stroke="#777777" fill="#777777" style="stroke:#777777;fill:#777777" vector-effect="non-scaling-stroke"/></g></svg>